PathFileType	4	(X/Y/Z)	Kaydara																																																																																																																									
DataRate	CameraRate	NumFrames	NumMarkers	Units	OrigDataRate	OrigDataStartFrame	OrigNumFrames																																																																																																																					
30	30	6	41	mm	30	30	232																																																																																																																					
Frame#	Time	EMLA_LFHD			EMLA_RFHD			EMLA_LBHD			EMLA_RBHD			EMLA_LFTShould			EMLA_RFTShould			EMLA_LRRShould			EMLA_RRRShould			EMLA_T10			EMLA_STRN			EMLA_TRUN			EMLA_LSHO			EMLA_LUPA			EMLA_LELB			EMLA_LFRM			EMLA_LWRA			EMLA_LWRB			EMLA_LFIN			EMLA_RSHO			EMLA_RUPA			EMLA_RELB			EMLA_RFRM			EMLA_RWRA			EMLA_RWRB			EMLA_RFIN			EMLA_LFWT			EMLA_RFWT			EMLA_LBWT			EMLA_RBWT			EMLA_LTHI			EMLA_LKNE			EMLA_LSHN			EMLA_LANK			EMLA_LHEE			EMLA_LTOE			EMLA_RTHI			EMLA_RKNE			EMLA_RSHN			EMLA_RANK			EMLA_RHEE			EMLA_RTOE		
		X1	Y1	Z1	X2	Y2	Z2	X3	Y3	Z3	X4	Y4	Z4	X5	Y5	Z5	X6	Y6	Z6	X7	Y7	Z7	X8	Y8	Z8	X9	Y9	Z9	X10	Y10	Z10	X11	Y11	Z11	X12	Y12	Z12	X13	Y13	Z13	X14	Y14	Z14	X15	Y15	Z15	X16	Y16	Z16	X17	Y17	Z17	X18	Y18	Z18	X19	Y19	Z19	X20	Y20	Z20	X21	Y21	Z21	X22	Y22	Z22	X23	Y23	Z23	X24	Y24	Z24	X25	Y25	Z25	X26	Y26	Z26	X27	Y27	Z27	X28	Y28	Z28	X29	Y29	Z29	X30	Y30	Z30	X31	Y31	Z31	X32	Y32	Z32	X33	Y33	Z33	X34	Y34	Z34	X35	Y35	Z35	X36	Y36	Z36	X37	Y37	Z37	X38	Y38	Z38	X39	Y39	Z39	X40	Y40	Z40	X41	Y41	Z41
																																																																																																																												
30	0.977	250.71686	1636.3884	-1970.34515	80.87259	1634.47906	-1976.88202	269.76286	1625.35736	-2121.38214	75.41329	1625.94818	-2129.69849	252.87203	1404.10324	-2028.90778	101.78521	1395.31525	-2025.50156	242.97066	1447.51648	-2178.75473	87.96993	1438.8118	-2173.22662	177.0706	1269.67049	-2215.69717	178.31284	1336.09085	-1986.11328	173.94047	1233.88268	-1962.39273	376.32317	1424.41559	-2086.24969	433.88504	1242.38884	-2097.28409	454.80591	1098.79066	-2095.37048	453.73528	962.48795	-2078.60672	368.88195	826.51299	-1988.82599	428.09471	802.72133	-2044.60403	420.28507	774.90929	-1980.03571	-20.28221	1424.74152	-2087.83859	-73.92425	1229.37996	-2073.08426	-88.81777	1082.89284	-2079.84833	-87.63282	983.00194	-2075.53665	-12.72006	834.78188	-1960.4924	-60.24507	807.66663	-2025.76385	-70.6913	782.96013	-1967.09412	279.23439	995.20248	-1975.39154	44.00821	980.64362	-1988.98529	258.74399	1012.79541	-2174.87335	83.58154	1011.60507	-2170.52139	305.24239	727.51938	-2160.31631	308.58257	523.62156	-2118.02292	279.67194	342.68963	-2106.59348	281.20453	165.45521	-2178.28705	215.96189	84.86081	-2237.27264	246.96482	74.47773	-2037.81815	55.70688	713.06404	-2180.60608	23.4748	511.8259	-2124.3576	68.16453	290.14885	-2120.92987	34.47247	131.07558	-2204.95773	92.6631	77.78145	-2256.67313	52.56448	72.01359	-2056.40488
31	1.01	250.6638	1636.3858	-1970.24094	80.72683	1634.53812	-1976.82098	269.73007	1625.28091	-2121.27472	75.39138	1625.91995	-2129.61761	252.44053	1404.06265	-2028.77838	102.26117	1396.19049	-2023.58032	242.94052	1447.565	-2178.60992	87.92563	1438.80997	-2173.03024	176.99772	1269.6653	-2215.50751	178.09999	1336.32919	-1986.09406	173.90976	1233.99368	-1962.0752	376.27201	1424.49753	-2086.21826	433.86909	1242.49535	-2097.0723	454.77932	1098.84377	-2095.14694	453.74069	962.56538	-2078.53119	368.89065	826.49208	-1988.84842	428.13965	802.77435	-2044.58328	420.29541	774.91501	-1980.01862	-20.36752	1424.7641	-2087.67654	-74.01752	1229.46632	-2072.88284	-89.00412	1083.03024	-2079.65012	-87.84731	983.08678	-2075.2359	-13.22889	834.89227	-1960.02701	-60.51598	807.76581	-2025.39764	-70.98575	783.06396	-1966.71463	279.04043	995.08293	-1975.29999	43.95421	980.63988	-1988.70407	258.53811	1012.82898	-2174.66522	83.38378	1011.61987	-2170.30609	305.21103	727.54562	-2160.22614	308.5256	523.60943	-2117.93289	279.60358	342.69127	-2106.56693	281.18759	165.49307	-2178.24219	215.93477	84.9112	-2237.29279	246.96669	74.46723	-2037.81647	55.51909	713.0809	-2180.47897	23.40616	511.78547	-2124.20898	68.1464	290.11557	-2120.90057	34.44787	131.04085	-2204.92233	92.64832	77.7576	-2256.70456	52.57049	72.01889	-2056.41556
32	1.043	250.65538	1636.37787	-1970.05859	80.76275	1634.50577	-1976.64017	269.68225	1625.24109	-2121.05591	75.37138	1625.90988	-2129.49417	252.81404	1404.16153	-2028.4169	102.06236	1396.06384	-2025.18295	242.86001	1447.54807	-2178.42422	87.85271	1438.82278	-2172.84363	176.91458	1269.69307	-2215.28519	177.91418	1336.32401	-1985.79391	173.85412	1234.10667	-1961.79535	376.15467	1424.40323	-2085.68848	433.82336	1242.52487	-2096.8782	454.72389	1098.88939	-2094.94217	453.71693	962.61925	-2078.32123	368.92769	826.37688	-1988.82782	428.25092	802.79129	-2044.53629	420.457	774.9221	-1980.00076	-20.44501	1424.84467	-2087.41455	-74.13568	1229.57436	-2072.68204	-89.17545	1083.10547	-2079.36523	-88.06662	983.20251	-2074.95468	-13.53605	835.00114	-1959.62448	-60.76701	807.88918	-2025.00244	-71.2387	783.18298	-1966.28998	279.0659	995.06454	-1975.19455	43.7706	980.48416	-1988.47717	258.30818	1012.8344	-2174.53186	83.16183	1011.60332	-2170.03403	305.06268	727.51991	-2160.15213	308.4276	523.62679	-2117.93411	279.57533	342.69016	-2106.56097	281.15221	165.46528	-2178.22586	216.07689	84.68462	-2237.1611	246.96909	74.48943	-2037.8241	55.32179	713.05786	-2180.37643	23.32061	511.78997	-2124.00162	68.12898	290.06508	-2120.77927	34.41119	131.04023	-2204.8909	92.62161	77.7846	-2256.70349	52.57871	72.03069	-2056.42319
33	1.077	250.6835	1636.35345	-1969.8082	80.76263	1634.53186	-1976.43387	269.70381	1625.11414	-2120.71014	75.40575	1625.96375	-2129.23782	252.74818	1404.46228	-2028.3374	101.88971	1396.43723	-2023.57864	242.82131	1447.55981	-2178.16345	87.76311	1438.8652	-2172.49329	176.81734	1269.74831	-2215.0209	178.29153	1336.31302	-1985.13626	173.79196	1234.27505	-1961.37573	376.18431	1424.52393	-2085.69199	433.73119	1242.49962	-2096.56311	454.63615	1098.87512	-2094.65103	453.72787	962.61963	-2078.09311	369.03984	826.30379	-1988.45795	428.36666	802.77428	-2044.3663	420.60787	774.83566	-1979.82071	-20.49144	1424.9588	-2087.05444	-74.23206	1229.5298	-2072.03384	-89.38766	1083.22365	-2078.93372	-88.34473	983.32253	-2074.48761	-13.70767	835.10384	-1959.10446	-61.02289	808.00117	-2024.57962	-71.39746	783.25096	-1965.78796	279.41099	994.59633	-1975.16403	43.81555	980.52925	-1988.15598	258.09614	1012.85507	-2174.37546	82.97331	1011.6893	-2169.79935	304.85289	727.56073	-2160.10315	308.31707	523.6372	-2117.94998	279.49078	342.686	-2106.57288	281.10401	165.47052	-2178.25928	215.903	84.93328	-2237.22595	246.97121	74.48211	-2037.82364	55.01529	713.12508	-2180.28412	23.20511	511.7421	-2123.85727	68.07202	290.0738	-2120.72586	34.3764	131.04286	-2204.90524	92.60317	77.83079	-2256.69632	52.56514	72.01631	-2056.40915
34	1.11	250.73374	1636.22726	-1969.45007	80.85421	1634.53186	-1976.06537	269.72849	1625.25665	-2120.52414	75.43517	1626.04645	-2128.87039	252.80565	1404.44244	-2027.85141	101.97145	1396.38031	-2023.29987	242.78303	1447.55508	-2177.87155	87.70828	1438.92365	-2172.13623	176.70734	1269.78012	-2214.72	178.33773	1336.37146	-1984.71863	173.7314	1234.31534	-1961.06766	376.00731	1424.33578	-2085.01419	433.71002	1242.46643	-2096.19064	454.58267	1098.89488	-2094.28543	453.70762	962.64671	-2077.72659	369.13101	826.30852	-1988.14819	428.48652	802.75772	-2044.03275	420.75203	774.82239	-1979.52545	-20.54457	1425.09384	-2086.66946	-74.35443	1229.42734	-2071.16211	-89.54211	1083.37753	-2078.35663	-88.52963	983.47122	-2073.96332	-13.82882	835.25146	-1958.63983	-61.22311	808.0983	-2024.09027	-71.5723	783.36121	-1965.28275	279.25282	994.44977	-1975.00336	43.59962	980.41687	-1987.8595	257.93692	1012.8508	-2174.08051	82.76453	1011.75827	-2169.46045	304.67312	727.5663	-2160.00031	308.23511	523.63495	-2117.9631	279.42677	342.73903	-2106.59271	281.10342	165.49038	-2178.28781	215.82193	84.95186	-2237.33032	246.99551	74.52848	-2037.8537	54.8854	713.16544	-2180.23514	23.13487	511.7775	-2123.92059	68.06488	290.07486	-2120.74127	34.35566	131.06165	-2204.91364	92.55874	77.79399	-2256.70044	52.57698	72.02913	-2056.43234
35	1.143	250.74045	1636.0788	-1968.96896	81.00109	1634.4841	-1975.49927	269.79162	1625.15793	-2120.0502	75.47606	1626.14166	-2128.36838	252.63144	1404.37912	-2027.47162	101.94148	1396.48575	-2022.79877	242.68225	1447.56943	-2177.56012	87.56037	1439.02893	-2171.70944	176.43299	1269.84619	-2214.36707	177.59724	1336.4505	-1984.6817	173.6554	1234.30222	-1960.58624	375.96676	1424.37576	-2084.8111	433.65715	1242.45987	-2095.76157	454.60438	1098.87665	-2093.86261	453.76274	962.67838	-2077.27371	369.20364	826.3726	-1987.70828	428.57334	802.75528	-2043.50235	420.7827	774.84093	-1979.01688	-20.64441	1425.26062	-2086.14822	-74.57757	1230.04395	-2071.09818	-89.67607	1083.53233	-2077.67685	-88.73146	983.67973	-2073.35938	-13.9048	835.38536	-1958.16528	-61.49147	808.28346	-2023.55789	-71.76947	783.47282	-1964.75388	278.95477	994.56749	-1974.5491	43.39661	980.2533	-1987.62985	257.7949	1012.93198	-2173.8063	82.60159	1011.87714	-2169.18228	304.67283	727.56073	-2159.8349	308.20293	523.66508	-2117.8302	279.36455	342.69875	-2106.46851	281.08982	165.49732	-2178.23303	216.31647	84.20929	-2236.95847	246.98793	74.50173	-2037.83493	54.88832	713.19908	-2180.20493	23.10456	511.69415	-2123.94821	68.01141	290.03183	-2120.80521	34.3643	130.98274	-2204.90295	92.55741	77.79094	-2256.7038	52.59591	72.01284	-2056.41998
